# xmcd
#
# Track frame offsets:
#	150
#	12688
#	28952
#	45233
#	57919
#	72955
#	87087
#	103040
#	114705
#	130405
#	146599
#	162702
#	176247
#	194119
#
# Disc length: 2715 seconds
#
# Revision: 1
# Processed by: cddbd v1.5.2PL0 Copyright (c) Steve Scherf et al.
# Submitted via: audiograbber 1.83.01
#
DISCID=d70a990e
DTITLE=Nathan Tinkham - The Loom Nathan Tinkham
DYEAR=2000
DGENRE=Country
TTITLE0=Monina
TTITLE1=Tonight, I Would Hold You
TTITLE2=Alison Lives By The Big Ben
TTITLE3=What Would Jesus Do
TTITLE4=I´ve Seen That Look
TTITLE5=Chemistry
TTITLE6=Hobo Girl
TTITLE7=South To Whitehorse
TTITLE8=Annie, Gentle Annie
TTITLE9=Cowgirl Jody
TTITLE10=Close To Tears
TTITLE11=Get Thee Behind Me
TTITLE12=The Loom
TTITLE13=Red Haried Boy
EXTD=
EXTT0=
EXTT1=
EXTT2=
EXTT3=
EXTT4=
EXTT5=
EXTT6=
EXTT7=
EXTT8=
EXTT9=
EXTT10=
EXTT11=
EXTT12=
EXTT13=
PLAYORDER=
